HIERARCHY
ROOT Hips
{
    OFFSET 0.000000 0.000000 0.000000
    CHANNELS 6 Xposition Yposition Zposition Zrotation Xrotation Yrotation
    JOINT Spine
    {
        OFFSET -0.000000 8.339920 0.000000
        CHANNELS 3 Zrotation Xrotation Yrotation
        JOINT Spine1
        {
            OFFSET -0.000000 25.214485 0.000000
            CHANNELS 3 Zrotation Xrotation Yrotation
            JOINT Neck
            {
                OFFSET -0.000000 25.110935 2.282812
                CHANNELS 3 Zrotation Xrotation Yrotation
                JOINT Head
                {
                    OFFSET -0.000000 14.238888 -2.034127
                    CHANNELS 3 Zrotation Xrotation Yrotation
                    End Site
                    {
                        OFFSET -0.000000 25.426584 0.000000
                    }
                }
            }
            JOINT LeftShoulder
            {
                OFFSET 4.025024 23.158985 -0.185822
                CHANNELS 3 Zrotation Xrotation Yrotation
                JOINT LeftArm
                {
                    OFFSET 11.674057 0.000000 0.000000
                    CHANNELS 3 Zrotation Xrotation Yrotation
                    JOINT LeftForeArm
                    {
                        OFFSET 31.688633 0.000000 0.000000
                        CHANNELS 3 Zrotation Xrotation Yrotation
                        JOINT LeftHand
                        {
                            OFFSET 29.704493 0.000000 0.000000
                            CHANNELS 3 Zrotation Xrotation Yrotation
                            End Site
                            {
                                OFFSET 15.255952 0.000000 0.000000
                            }
                        }
                    }
                }
            }
            JOINT RightShoulder
            {
                OFFSET -4.099539 23.158985 -0.185822
                CHANNELS 3 Zrotation Xrotation Yrotation
                JOINT RightArm
                {
                    OFFSET -11.674057 0.000000 0.000000
                    CHANNELS 3 Zrotation Xrotation Yrotation
                    JOINT RightForeArm
                    {
                        OFFSET -31.688633 0.000000 0.000000
                        CHANNELS 3 Zrotation Xrotation Yrotation
                        JOINT RightHand
                        {
                            OFFSET -29.704493 0.000000 0.000000
                            CHANNELS 3 Zrotation Xrotation Yrotation
                            End Site
                            {
                                OFFSET -15.255952 0.000000 0.000000
                            }
                        }
                    }
                }
            }
        }
    }
    JOINT LeftUpLeg
    {
        OFFSET 10.170634 0.000000 0.000000
        CHANNELS 3 Zrotation Xrotation Yrotation
        JOINT LeftLeg
        {
            OFFSET -0.000000 -41.352962 0.000000
            CHANNELS 3 Zrotation Xrotation Yrotation
            JOINT LeftFoot
            {
                OFFSET -0.000000 -47.535004 0.000000
                CHANNELS 3 Zrotation Xrotation Yrotation
                JOINT LeftToeBase
                {
                    OFFSET -0.000000 -6.610912 15.255952
                    CHANNELS 3 Zrotation Xrotation Yrotation
                    End Site
                    {
                        OFFSET -0.000000 0.000000 4.068254
                    }
                }
            }
        }
    }
    JOINT RightUpLeg
    {
        OFFSET -10.170634 0.000000 0.000000
        CHANNELS 3 Zrotation Xrotation Yrotation
        JOINT RightLeg
        {
            OFFSET -0.000000 -41.352962 0.000000
            CHANNELS 3 Zrotation Xrotation Yrotation
            JOINT RightFoot
            {
                OFFSET -0.000000 -47.535004 0.000000
                CHANNELS 3 Zrotation Xrotation Yrotation
                JOINT RightToeBase
                {
                    OFFSET -0.000000 -6.610912 15.255952
                    CHANNELS 3 Zrotation Xrotation Yrotation
                    End Site
                    {
                        OFFSET -0.000000 0.000000 4.068254
                    }
                }
            }
        }
    }
}
MOTION
Frames:    4
Frame Time:    0.008333
10.144958    93.664413    38.460514    -3.985637    -11.052615    112.328728    1.255103    -5.243886    -2.502417    3.441916    13.023401    -2.952974    -6.078329    18.168407    -6.269324    7.223884    -15.569607    -4.653089    4.836261    5.576851    -9.011291    -72.176140    41.560253    -4.649944    11.136385    -22.137661    -27.074873    -17.865547    -18.275499    -9.052716    -11.691002    -1.364111    0.517640    72.095612    54.305553    8.761297    -3.444157    -14.711668    23.090960    6.182034    -13.701176    6.252295    9.717377    -10.784837    3.614854    -2.799320    29.455330    1.795932    -1.724781    -15.301977    0.608329    0.000000    0.000000    0.000000    9.867652    -30.633373    12.946510    7.648823    49.058815    -11.137436    10.022533    -7.257482    -13.533590    0.000000    0.000000    0.000000    
10.550894    94.290657    37.962448    -3.882376    -10.901170    112.300484    1.548398    -5.142019    -2.599199    3.030498    12.580438    -3.002964    -6.058102    17.953306    -5.880606    7.321002    -15.316560    -4.224253    5.032534    5.481784    -8.904368    -71.361214    41.669964    -4.765103    10.979991    -21.926943    -26.357264    -17.993689    -18.181925    -8.875298    -11.423553    -1.580593    1.034587    71.012909    55.584919    8.868981    -4.228408    -14.143930    22.591694    6.279213    -12.951432    6.938404    9.477048    -9.472121    3.971553    -2.733049    27.573586    2.286665    -2.129030    -12.960057    -0.490940    0.000000    0.000000    0.000000    10.067257    -30.001373    12.709291    6.883242    46.361832    -10.341359    11.353050    -6.923506    -13.042519    0.000000    0.000000    0.000000    
10.991444    94.849327    37.479038    -3.597696    -10.760228    112.336502    1.909678    -5.011740    -2.701288    2.640166    12.440055    -3.072772    -6.461303    18.227686    -5.980502    8.332691    -16.069040    -4.023309    5.430572    5.067704    -8.829170    -70.887016    41.949017    -4.662712    10.886277    -21.804163    -25.760180    -18.115501    -18.168530    -8.589940    -11.170770    -1.724622    1.431562    69.649498    56.037613    9.285822    -4.435986    -13.309990    22.528236    5.560459    -12.140491    6.467196    9.324155    -7.988818    4.133492    -2.736630    25.716114    2.817456    -2.852437    -10.837299    -1.494536    0.000000    0.000000    0.000000    10.388990    -29.173393    12.416215    6.005702    43.640087    -9.664810    12.589658    -6.440968    -12.326324    0.000000    0.000000    0.000000    
11.442506    95.391396    36.974751    -3.297816    -10.538885    112.395447    2.178872    -4.775932    -2.804960    2.319219    12.132448    -3.142474    -6.324346    18.328112    -5.898190    8.297263    -16.385084    -3.928828    5.661389    5.142039    -8.739494    -69.732857    42.166958    -5.240077    10.736155    -21.681973    -24.980381    -18.584627    -18.140459    -8.428922    -11.026063    -1.787804    1.955045    68.747551    56.547050    9.282018    -4.981586    -12.725067    22.555260    4.827332    -11.511111    5.854393    9.057530    -6.510500    4.466326    -2.590932    24.025253    2.846416    -3.131061    -8.611988    -2.148267    0.000000    0.000000    0.000000    10.595376    -28.199726    11.975457    5.168820    40.738087    -8.741426    13.803746    -6.123770    -12.021852    0.000000    0.000000    0.000000    
